<?xml version="1.0" encoding="utf-8"?>
<!-- Generator: Adobe Illustrator 19.0.0, SVG Export Plug-In . SVG Version: 6.00 Build 0)  -->
<svg version="1.1" id="Camada_1" xmlns="http://www.w3.org/2000/svg" xmlns:xlink="http://www.w3.org/1999/xlink" x="0px" y="0px"
	 viewBox="-467 269 24 24" style="enable-background:new -467 269 24 24;" xml:space="preserve">
<style type="text/css">
	.st0{fill:#D99833;}
	.st1{fill:#E6E6E6;}
	.st2{fill:#F2F2F2;}
	.st3{fill:#FFFFFF;}
	.st4{fill:#FFB33C;}
	.st5{fill:#F2AA39;}
</style>
<g>
	<path class="st0" d="M-446.2,274.9c0-0.3-0.2-0.3-0.3-0.3h-9.8l-2.8-2.8c-0.2-0.2-0.2-0.2-0.3-0.2h-4.4c-0.2,0-0.3,0-0.3,0.2
		l-2.6,2.8c-0.2,0.2-0.2,0.2-0.2,0.3l0.7,14.7c0,0.3,0.2,0.3,0.3,0.3h20c0.2,0,0.3,0,0.3-0.2c0.2-0.2,0.2-0.2,0.2-0.3L-446.2,274.9z
		"/>
	<path class="st1" d="M-447.2,277.4l-18.7,0.5c-0.3,0-0.3,0.2-0.3,0.3l0.3,11c0,0.3,0.2,0.3,0.3,0.3l18.8-0.7c0.3,0,0.3-0.2,0.3-0.3
		l-0.3-11C-446.8,277.4-447,277.4-447.2,277.4z"/>
	<path class="st2" d="M-446.2,276.1l-18.8-0.3c-0.3,0-0.3,0.2-0.3,0.3l-0.3,11c0,0.3,0.2,0.3,0.3,0.3l18.8,0.3
		c0.3,0,0.3-0.2,0.3-0.3l0.3-11C-445.9,276.2-446.2,276.1-446.2,276.1z"/>
	<path class="st3" d="M-445.2,276.7l-18.7-2.3c-0.3,0-0.3,0.2-0.3,0.3l-1.1,11c0,0.3,0.2,0.3,0.3,0.3l18.7,2.3
		c0.3,0,0.3-0.2,0.3-0.3l1.1-11C-445,276.9-445.2,276.7-445.2,276.7z"/>
	<path class="st4" d="M-443.1,273.6c-0.2-0.2-0.2-0.2-0.3-0.2h-10c-0.2,0-0.2,0-0.3,0.2l-2.8,2.8h-6.9c-0.2,0-0.3,0.2-0.3,0.3
		l-2.6,13.1c0,0.2,0,0.3,0.2,0.3c0.2,0.2,0.2,0.2,0.3,0.2h20c0.2,0,0.3-0.2,0.3-0.3L-443.1,273.6
		C-442.9,273.8-443.1,273.8-443.1,273.6z"/>
	<g>
		<path class="st5" d="M-466.3,290c0.2,0.2,0.2,0.2,0.3,0.2h20c0.2,0,0.3-0.2,0.3-0.3l0.8-4.6l-21.5,4.4
			C-466.3,289.8-466.3,290-466.3,290z"/>
	</g>
</g>
</svg>
