<?xml version="1.0" encoding="utf-8"?>
<!-- Generator: Adobe Illustrator 19.0.0, SVG Export Plug-In . SVG Version: 6.00 Build 0)  -->
<svg version="1.1" id="Camada_1" xmlns="http://www.w3.org/2000/svg" xmlns:xlink="http://www.w3.org/1999/xlink" x="0px" y="0px"
	 viewBox="-467 269 24 24" style="enable-background:new -467 269 24 24;" xml:space="preserve">
<style type="text/css">
	.st0{fill:#EFB167;}
	.st1{fill:#FFFFFF;}
</style>
<g>
	<circle class="st0" cx="-455" cy="281" r="12"/>
	<circle class="st1" cx="-455" cy="281" r="9.6"/>
	<g>
		<polygon class="st0" points="-457.4,278.4 -457.4,278.4 -453.5,276.2 -453.5,281 -453.5,285.8 -457.4,283.6 -457.4,283.6 
			-459.8,283.6 -459.8,282 -459.8,280 -459.8,278.4 		"/>
		<path class="st0" d="M-450.9,281c0,1-0.3,1.7-1,2.6l0.5,0.5c0.7-0.7,1.2-1.7,1.2-2.9c0-1-0.5-2.1-1.2-2.9l-0.5,0.5
			C-451.2,279.1-450.9,280-450.9,281z"/>
		<path class="st0" d="M-451.9,281c0,0.7-0.2,1.4-0.7,1.7l0.3,0.3c0.5-0.5,0.9-1.4,0.9-2.1c0-0.9-0.3-1.5-0.9-2.1l-0.3,0.3
			C-452.3,279.6-451.9,280.3-451.9,281z"/>
		<path class="st0" d="M-449.5,281c0,1.4-0.5,2.6-1.4,3.3l0.5,0.5c1-1,1.5-2.4,1.5-3.9s-0.5-2.9-1.5-3.9l-0.5,0.5
			C-450.2,278.4-449.5,279.6-449.5,281z"/>
	</g>
</g>
</svg>
