<?xml version="1.0" encoding="utf-8"?>
<!-- Generator: Adobe Illustrator 19.0.0, SVG Export Plug-In . SVG Version: 6.00 Build 0)  -->
<svg version="1.1" id="Camada_1" xmlns="http://www.w3.org/2000/svg" xmlns:xlink="http://www.w3.org/1999/xlink" x="0px" y="0px"
	 viewBox="-467 269 24 24" style="enable-background:new -467 269 24 24;" xml:space="preserve">
<style type="text/css">
	.st0{fill:#F9F9F9;}
	.st1{fill:#F1A02E;}
	.st2{fill:none;}
	.st3{fill:#FFFFFF;}
	.st4{font-family:'OpenSans';}
	.st5{font-size:4.039px;}
</style>
<g>
	<rect x="-464.6" y="275.6" class="st0" width="19.3" height="17.4"/>
	<polygon class="st1" points="-445.5,276.3 -445.5,275.2 -451.6,275.2 -451.6,269.1 -464.6,269.1 -464.6,276.3 	"/>
	<polygon class="st1" points="-451.4,269.1 -451.4,274.8 -445.5,274.8 	"/>
	<g>
		<g>
			<path class="st1" d="M-460.3,286v0.7h-0.7V286H-460.3 M-459.9,285.6h-1.4v1.4h1.4V285.6L-459.9,285.6z"/>
			<path class="st1" d="M-449,286v0.7h-0.7V286H-449 M-448.6,285.6h-1.4v1.4h1.4V285.6L-448.6,285.6z"/>
		</g>
		<g>
			<rect x="-455.7" y="280.5" class="st1" width="1.4" height="1.4"/>
		</g>
		<g>
			<path class="st1" d="M-460.4,285.8c0.4-2.6,2.8-4.6,5.4-4.6s5,2,5.4,4.6h0.3c-0.4-2.8-2.9-4.7-5.6-4.7s-5.1,2-5.6,4.7H-460.4z"/>
		</g>
		<path class="st1" d="M-449.3,281c-0.1,0-0.1,0.1-0.3,0.1h-11.1c0-0.1-0.1-0.1-0.3-0.1c-0.1,0-0.3,0.1-0.3,0.3
			c0,0.1,0.1,0.3,0.3,0.3c0.1,0,0.1-0.1,0.3-0.1h11.1c0,0.1,0.1,0.1,0.3,0.1c0.1,0,0.3-0.1,0.3-0.3C-449,281.1-449,281-449.3,281z"
			/>
	</g>
	<rect id="XMLID_16_" x="-462.9" y="270.8" class="st2" width="9.3" height="3.8"/>
	<text id="XMLID_2_" transform="matrix(0.9999 0 0 1 -462.7959 273.7667)" class="st3 st4 st5">EPS</text>
</g>
</svg>
