<?xml version="1.0" encoding="utf-8"?>
<!-- Generator: Adobe Illustrator 19.0.0, SVG Export Plug-In . SVG Version: 6.00 Build 0)  -->
<svg version="1.1" id="Camada_1" xmlns="http://www.w3.org/2000/svg" xmlns:xlink="http://www.w3.org/1999/xlink" x="0px" y="0px"
	 viewBox="-467 269 24 24" style="enable-background:new -467 269 24 24;" xml:space="preserve">
<style type="text/css">
	.st0{fill:#EFB167;}
</style>
<g>
	<path class="st0" d="M-467,273.1v15.8h24v-15.8H-467z M-443.5,274.1v8.5l-6-3.2l-6.3,3.8l-10.1-5.3v-3.8L-443.5,274.1L-443.5,274.1
		z M-466,288.1L-466,288.1l9.7,0.3l12.3-0.3v-4.4v4.4H-466z"/>
	<path class="st0" d="M-454.2,277.9c0-1.2-1-2.5-2.5-2.5c-1.2,0-2.5,1-2.5,2.5c0,1.2,1,2.5,2.5,2.5
		C-455.2,280.4-454.2,279.2-454.2,277.9z M-456.8,279.2C-456.8,280.1-455.9,279.2-456.8,279.2S-456.8,280.1-456.8,279.2
		C-456.8,278.6-457.8,279.2-456.8,279.2S-456.8,278.6-456.8,279.2z"/>
</g>
</svg>
