<?xml version="1.0" encoding="utf-8"?>
<!-- Generator: Adobe Illustrator 19.0.0, SVG Export Plug-In . SVG Version: 6.00 Build 0)  -->
<svg version="1.1" id="Camada_1" xmlns="http://www.w3.org/2000/svg" xmlns:xlink="http://www.w3.org/1999/xlink" x="0px" y="0px"
	 viewBox="-467 269 24 24" style="enable-background:new -467 269 24 24;" xml:space="preserve">
<style type="text/css">
	.st0{fill:#F9F9F9;}
	.st1{fill:#00B48D;}
	.st2{fill:#FFFFFF;}
	.st3{font-family:'OpenSans';}
	.st4{font-size:3.756px;}
	.st5{fill:#00B38C;}
</style>
<g>
	<rect x="-464.8" y="275.7" class="st0" width="19.4" height="17.3"/>
	<polygon class="st1" points="-445.2,276.3 -445.2,275.2 -451.7,275.2 -451.7,269 -464.8,269 -464.8,276.3 	"/>
	<polygon class="st1" points="-451.2,269 -451.2,274.8 -445.2,274.8 	"/>
	<text transform="matrix(1.0041 0 0 1 -462.7017 274.0439)" class="st2 st3 st4">JPG</text>
	<path class="st5" d="M-452.6,280.9c-0.1,0-0.1-0.1-0.3-0.1h-6.2c-0.3,0-0.5,0.1-0.5,0.5v5.8h0.1l3.6-2.2c0.1,0,0.3,0,0.3,0l1.1,0.8
		l2.1-1.7h0.1h0.1l2.1,1.6l0,0v-2.4c0-0.1,0-0.3-0.1-0.3L-452.6,280.9z M-457.4,284.6c-0.7,0-1.2-0.4-1.2-0.9c0-0.5,0.5-0.9,1.2-0.9
		c0.7,0,1.2,0.4,1.2,0.9C-456.2,284.2-456.7,284.6-457.4,284.6L-457.4,284.6z M-453,283.1v-1.7"/>
	<path class="st5" d="M-454.2,285.8l1.1,0.8c0.1,0,0.1,0.1,0,0.3c-0.1,0-0.3,0-0.3,0l-2.2-1.7l-3,2h8.7v-1.2l-2.4-1.7L-454.2,285.8z
		"/>
	<path class="st5" d="M-457.4,283.1c-0.4,0-0.8,0.3-0.8,0.5c0,0.3,0.4,0.5,0.8,0.5c0.4,0,0.8-0.3,0.8-0.5
		C-456.7,283.4-457,283.1-457.4,283.1L-457.4,283.1z"/>
</g>
</svg>
