<?xml version="1.0" encoding="utf-8"?>
<!-- Generator: Adobe Illustrator 19.0.0, SVG Export Plug-In . SVG Version: 6.00 Build 0)  -->
<svg version="1.1" id="Camada_1" xmlns="http://www.w3.org/2000/svg" xmlns:xlink="http://www.w3.org/1999/xlink" x="0px" y="0px"
	 viewBox="-467 269 24 24" style="enable-background:new -467 269 24 24;" xml:space="preserve">
<style type="text/css">
	.st0{fill:#F9F9F9;}
	.st1{fill:#00AEEF;}
	.st2{fill:none;}
	.st3{fill:#FFFFFF;}
	.st4{font-family:'MyriadPro-Regular';}
	.st5{font-size:4.1259px;}
</style>
<g>
	<rect x="-464.6" y="275.7" class="st0" width="19.2" height="17.3"/>
	<polygon class="st1" points="-445.4,276.4 -445.4,275.2 -451.6,275.2 -451.6,269.1 -464.6,269.1 -464.6,276.4 	"/>
	<polygon class="st1" points="-451.2,269.1 -451.2,274.8 -445.4,274.8 	"/>
	<path id="XMLID_829_" class="st1" d="M-453.6,281.9c-1.2-0.8-1.3-2-1.3-2v0.1h-0.3v6.1c-0.3-0.3-0.8-0.4-1.2-0.4
		c-0.8,0-1.6,0.5-1.6,1.2s0.7,1.2,1.4,1.2s1.6-0.5,1.6-1.2l0,0l0,0l0,0l0,0v-5.8c0.3,0.3,0.5,0.8,1.2,1.2c1.2,0.9,0.3,1.8,0.3,1.8
		C-452.6,283.7-452.3,282.7-453.6,281.9z"/>
	<rect id="XMLID_16_" x="-463.4" y="271" class="st2" width="8.1" height="3.3"/>
	<text id="XMLID_2_" transform="matrix(1.0019 0 0 1 -463.437 273.9858)" class="st3 st4 st5">MP3</text>
</g>
</svg>
