<?xml version="1.0" encoding="utf-8"?>
<!-- Generator: Adobe Illustrator 19.0.0, SVG Export Plug-In . SVG Version: 6.00 Build 0)  -->
<svg version="1.1" id="Camada_1" xmlns="http://www.w3.org/2000/svg" xmlns:xlink="http://www.w3.org/1999/xlink" x="0px" y="0px"
	 viewBox="-467 269 24 24" style="enable-background:new -467 269 24 24;" xml:space="preserve">
<style type="text/css">
	.st0{fill:#F9F9F9;}
	.st1{fill:#F1583E;}
	.st2{fill:#FFFFFF;}
	.st3{font-family:'OpenSans';}
	.st4{font-size:3.7112px;}
	.st5{clip-path:url(#SVGID_2_);fill:#F1583E;}
</style>
<g>
	<rect x="-465" y="276.1" class="st0" width="19.2" height="16.9"/>
	<polygon class="st1" points="-445.5,276.4 -445.5,275.3 -451.9,275.3 -451.9,269 -464.8,269 -464.8,276.4 	"/>
	<polygon class="st1" points="-451.4,269 -451.4,274.8 -445.5,274.8 	"/>
	<text transform="matrix(1.0085 0 0 1 -462.8594 274.1015)" class="st2 st3 st4">PDF</text>
	<g>
		<g>
			<defs>
				<rect id="SVGID_1_" x="-460.1" y="280.1" width="9.2" height="7"/>
			</defs>
			<clipPath id="SVGID_2_">
				<use xlink:href="#SVGID_1_"  style="overflow:visible;"/>
			</clipPath>
			<path class="st5" d="M-454.4,284.9c1.1,0.9,2,1.6,2.5,1.6c0.3,0,0.8-0.3,0.8-0.5c0.1-0.5-0.1-0.7-0.3-0.8l0.1,0.1
				c-0.3-0.5-1.7-0.8-2.9-0.9c-0.1,0-0.3-0.1-0.4-0.3c-1.1-1.1-1.4-2.6-1.7-3.4c0-0.1,0-0.3,0-0.4c0-0.1,0-0.3-0.3-0.3
				c-0.1,0-0.1,0-0.1,0.1c0,0.3,0,0.1,0,0.3c0,0.1,0,0.3,0.1,0.4c0.1,0.8,0.1,2.4-0.7,3.7c-0.1,0.1-0.1,0.3-0.3,0.4
				c-1.3,0.4-2.5,0.9-2.6,1.4c0,0.1,0,0.4,0.1,0.5c0.1,0.1,0.3,0.1,0.5,0.1c0.7,0,1.6-0.5,2.4-1.7 M-459.3,286.5
				c-0.1,0-0.3,0-0.3-0.1c0,0,0,0,0-0.1c0.1-0.3,0.8-0.7,1.8-1.1C-458.4,286.1-458.9,286.5-459.3,286.5L-459.3,286.5z M-456.7,284.7
				L-456.7,284.7c0.4-0.7,0.5-1.3,0.7-2.2c0.3,0.8,0.8,1.4,1.3,2l0,0 M-451.7,285.6c-0.1,0.1-0.1,0.1-0.4,0.1
				c-0.4,0-0.9-0.3-1.7-0.9C-452.6,285.1-451.8,285.3-451.7,285.6L-451.7,285.6L-451.7,285.6z"/>
		</g>
	</g>
</g>
</svg>
