<?xml version="1.0" encoding="utf-8"?>
<!-- Generator: Adobe Illustrator 19.0.0, SVG Export Plug-In . SVG Version: 6.00 Build 0)  -->
<svg version="1.1" id="Camada_1" xmlns="http://www.w3.org/2000/svg" xmlns:xlink="http://www.w3.org/1999/xlink" x="0px" y="0px"
	 viewBox="-467 269 24 24" style="enable-background:new -467 269 24 24;" xml:space="preserve">
<style type="text/css">
	.st0{fill:#F9F9F9;}
	.st1{fill:#FF671B;}
	.st2{fill:#FFFFFF;}
	.st3{font-family:'OpenSans';}
	.st4{font-size:3.736px;}
</style>
<g>
	<rect x="-464.7" y="275.6" class="st0" width="19.3" height="17.3"/>
	<polygon class="st1" points="-445.3,276.3 -445.3,275.3 -451.7,275.3 -451.7,269.1 -464.7,269.1 -464.7,276.3 	"/>
	<polygon class="st1" points="-451.2,269.1 -451.2,274.9 -445.3,274.9 	"/>
	<text transform="matrix(1.004 0 0 1 -462.6509 274.0948)" class="st2 st3 st4">PPT</text>
	<g>
		<rect x="-460.2" y="279.3" class="st1" width="10.4" height="10.4"/>
		<rect x="-459.3" y="280.2" class="st0" width="8.5" height="8.5"/>
		<rect x="-458" y="281.9" class="st1" width="6" height="5.1"/>
		<rect x="-457.6" y="282.5" class="st0" width="5.1" height="0.7"/>
		<path class="st0" d="M-456.3,283.6c-0.7,0-1.3,0.5-1.3,1.3c0,0.7,0.5,1.3,1.3,1.3c0.7,0,1.3-0.5,1.3-1.3h-1.3V283.6z"/>
		<rect x="-454.3" y="283.8" class="st0" width="2" height="0.4"/>
		<rect x="-454.3" y="284.6" class="st0" width="2" height="0.4"/>
		<rect x="-454.3" y="285.4" class="st0" width="2" height="0.4"/>
	</g>
</g>
</svg>
